<svg width="720" height="484" viewBox="0 0 720 484" xmlns="http://www.w3.org/2000/svg" role="img" aria-labelledby="t d" xmlns:c2pa="http://c2pa.org/manifest">
<title id="t">LOKF in Obsidian</title>
<desc id="d">Top: notes in an Obsidian vault become a LOKF knowledge bundle at .lokf/knowledge/, one Markdown note per concept. Bottom: five roles in the order they first run, left to right: Sidecar lays the network, Librarian binds it into order, Registrar (the LOKF Registrar plugin, as you type) keeps records straight, Curator (the LOKF Curator plugin, at the desk) holds the scales and is always a person; these two are emphasised inside a dashed box labelled in Obsidian, the plugins, while the other three, agent skills run from a terminal, are shown in grey. Docent guides the visitors. A dashed feedback path returns from the Docent and the Curator to the Librarian: what a curator sends back or a reader finds missing becomes the librarian's next task. Green marks agent work, amber deterministic checks, blue a named person.</desc>
<rect width="720" height="484" fill="#1C1C1A"/>
<!-- ktl-brand:start --><g transform="translate(20,7) scale(0.46875)"><rect x="17.5" y="12" width="4.5" height="38" rx="2.25" fill="#6E6D66"/><rect x="42" y="12" width="4.5" height="38" rx="2.25" fill="#6E6D66"/><rect x="17.5" y="38" width="29" height="5" rx="2.5" fill="#ABA9A0"/><rect x="17.5" y="28.5" width="29" height="5" rx="2.5" fill="#E4BD6E"/><path d="M20 16 L29.5 23.5 L49.5 6.5" fill="none" stroke="#1C1C1A" stroke-width="9" stroke-linecap="round" stroke-linejoin="round"/><path d="M20 16 L29.5 23.5 L49.5 6.5" fill="none" stroke="#93C0F2" stroke-width="5.2" stroke-linecap="round" stroke-linejoin="round"/><path d="M32 49.5 C26 45 15 45 6.5 47.5 v9.5 C15 54.5 26 54.5 32 59 C38 54.5 49 54.5 57.5 57 v-9.5 C49 45 38 45 32 49.5 z" fill="#23301B" stroke="#6FA33F" stroke-width="1.7" stroke-linejoin="round"/><line x1="32" y1="49.5" x2="32" y2="59" stroke="#6FA33F" stroke-width="1.7"/><path d="M11 50.6 C16 49.6 22 49.8 27 51.6 M37 51.6 C42 49.8 48 49.6 53 50.6" fill="none" stroke="#6FA33F" stroke-opacity=".5" stroke-width="1.3" stroke-linecap="round"/></g><text x="56" y="20" font-family="Arial, sans-serif" font-size="10.5" font-weight="700" fill="#ABA9A0">Knowledge</text><text x="56" y="32.5" font-family="Arial, sans-serif" font-size="10.5" font-weight="700" fill="#ABA9A0">Trust Ladder</text><!-- ktl-brand:end -->
<text x="360.0" y="30" text-anchor="middle" font-family="Arial, sans-serif" font-size="18" font-weight="700" fill="#E6E4DC">LOKF in Obsidian</text>
<rect x="70" y="48" width="580" height="150" rx="20" fill="#262623"/>
<text x="185" y="76" text-anchor="middle" font-family="Arial, sans-serif" font-size="13" font-weight="700" fill="#E6E4DC">Obsidian Vault</text>
<text x="520" y="76" text-anchor="middle" font-family="Arial, sans-serif" font-size="13" font-weight="700" fill="#A9D27C">Knowledge bundle</text>
<rect x="102" y="92" width="166" height="90" rx="12" fill="#30302C" stroke="#4A4944" stroke-width="1"/>
<g transform="translate(185,118)" stroke="#ABA9A0" stroke-width="1.3" fill="none" stroke-linecap="round" stroke-linejoin="round"><rect x="-9" y="-11" width="18" height="22" rx="2"/><line x1="-5" y1="-3" x2="5" y2="-3"/><line x1="-5" y1="2" x2="5" y2="2"/><line x1="-5" y1="7" x2="2" y2="7"/></g>
<text x="185" y="148" text-anchor="middle" font-family="Arial, sans-serif" font-size="13" font-weight="700" fill="#E6E4DC">raw sources</text>
<text x="185" y="166" text-anchor="middle" font-family="Arial, sans-serif" font-size="11.5" fill="#ABA9A0">notes · pages · attachments</text>
<line x1="276" y1="137" x2="402" y2="137" stroke="#8F8E86" stroke-width="1.3"/><path d="M395.4 141.5 L402 137 L395.4 132.5" fill="none" stroke="#8F8E86" stroke-width="1.3" stroke-linecap="round" stroke-linejoin="round"/><text x="339.0" y="129.0" text-anchor="middle" font-family="Arial, sans-serif" font-size="11" fill="#8F8E86">becomes</text>
<rect x="410" y="92" width="220" height="90" rx="12" fill="#23301B" stroke="#6FA33F" stroke-width="2"/>
<g transform="translate(520,118)" stroke="#A9D27C" stroke-width="1.3" fill="none" stroke-linecap="round" stroke-linejoin="round"><line x1="-8" y1="6" x2="0" y2="-8"/><line x1="8" y1="6" x2="0" y2="-8"/><line x1="-8" y1="6" x2="8" y2="6"/><circle cx="0" cy="-8" r="3" fill="#23301B"/><circle cx="-8" cy="6" r="3" fill="#23301B"/><circle cx="8" cy="6" r="3" fill="#23301B"/></g>
<text x="520" y="148" text-anchor="middle" font-family="Arial, sans-serif" font-size="13" font-weight="700" fill="#A9D27C">.lokf/knowledge/</text>
<text x="520" y="166" text-anchor="middle" font-family="Arial, sans-serif" font-size="11.5" fill="#A9D27C">One markdown per concept, linked</text>
<line x1="360" y1="198" x2="360" y2="222" stroke="#8F8E86" stroke-width="1.3"/><path d="M355.5 215.4 L360 222 L364.5 215.4" fill="none" stroke="#8F8E86" stroke-width="1.3" stroke-linecap="round" stroke-linejoin="round"/>
<rect x="20" y="232" width="680" height="210" rx="20" fill="#262623"/>
<text x="40" y="260" font-family="Arial, sans-serif" font-size="14" font-weight="700" fill="#E6E4DC">Five roles</text>
<rect x="274" y="262" width="294" height="132" rx="18" fill="#30302C" stroke="#E6E4DC" stroke-width="1.5"/>
<rect x="329" y="250" width="184" height="22" rx="11" fill="#E6E4DC"/>
<text x="421" y="265" text-anchor="middle" font-family="Arial, sans-serif" font-size="12" font-weight="700" fill="#30302C">in Obsidian - the plugins</text>
<rect x="32" y="276" width="108" height="104" rx="12" fill="#2B2B28" stroke="#5A5954" stroke-width="1"/>
<g transform="translate(86,302)" stroke="#9A998F" stroke-width="1.3" fill="none" stroke-linecap="round" stroke-linejoin="round"><path d="M-10 -6 h7 l3 3 h10 v11 h-20 z"/><line x1="0" y1="1" x2="0" y2="6"/><line x1="-2.5" y1="3.5" x2="2.5" y2="3.5"/></g>
<text x="86" y="334" text-anchor="middle" font-family="Arial, sans-serif" font-size="14" font-weight="700" fill="#9A998F">Sidecar</text>
<text x="86" y="351" text-anchor="middle" font-family="Arial, sans-serif" font-size="11" fill="#9A998F">lays the network</text>
<text x="86" y="368" text-anchor="middle" font-family="Arial, sans-serif" font-size="9.5" fill="#9A998F">agent skill · terminal</text>
<line x1="143" y1="328" x2="151" y2="328" stroke="#8F8E86" stroke-width="1.3"/><path d="M144.4 332.5 L151 328 L144.4 323.5" fill="none" stroke="#8F8E86" stroke-width="1.3" stroke-linecap="round" stroke-linejoin="round"/>
<rect x="154" y="276" width="118" height="104" rx="12" fill="#2B2B28" stroke="#5A5954" stroke-width="1"/>
<g transform="translate(213,302)" stroke="#9A998F" stroke-width="1.3" fill="none" stroke-linecap="round" stroke-linejoin="round"><rect x="-10" y="-8" width="20" height="16" rx="2"/><line x1="0" y1="-8" x2="0" y2="8"/></g>
<text x="213" y="334" text-anchor="middle" font-family="Arial, sans-serif" font-size="14" font-weight="700" fill="#9A998F">Librarian</text>
<text x="213" y="351" text-anchor="middle" font-family="Arial, sans-serif" font-size="11" fill="#9A998F">binds it into order</text>
<text x="213" y="368" text-anchor="middle" font-family="Arial, sans-serif" font-size="9.5" fill="#9A998F">agent skill · terminal</text>
<line x1="275" y1="328" x2="283" y2="328" stroke="#8F8E86" stroke-width="1.3"/><path d="M276.4 332.5 L283 328 L276.4 323.5" fill="none" stroke="#8F8E86" stroke-width="1.3" stroke-linecap="round" stroke-linejoin="round"/>
<rect x="286" y="276" width="128" height="104" rx="12" fill="#33290F" stroke="#C99A3E" stroke-width="3"/>
<g transform="translate(350,302)" stroke="#E4BD6E" stroke-width="1.3" fill="none" stroke-linecap="round" stroke-linejoin="round"><rect x="-8" y="-8" width="16" height="18" rx="2"/><path d="M-3 -10 h6 v3 h-6 z" fill="#33290F"/><path d="M-4 2 l3 3 l5 -6"/></g>
<text x="350" y="334" text-anchor="middle" font-family="Arial, sans-serif" font-size="14" font-weight="700" fill="#E4BD6E">Registrar</text>
<text x="350" y="351" text-anchor="middle" font-family="Arial, sans-serif" font-size="11" fill="#E4BD6E">keeps records straight</text>
<text x="350" y="368" text-anchor="middle" font-family="Arial, sans-serif" font-size="9.5" font-weight="700" fill="#E4BD6E">plugin · as you type</text>
<line x1="417" y1="328" x2="425" y2="328" stroke="#8F8E86" stroke-width="1.3"/><path d="M418.4 332.5 L425 328 L418.4 323.5" fill="none" stroke="#8F8E86" stroke-width="1.3" stroke-linecap="round" stroke-linejoin="round"/>
<rect x="428" y="276" width="128" height="104" rx="12" fill="#142639" stroke="#5A9BE0" stroke-width="3"/>
<g transform="translate(492,302)" stroke="#93C0F2" stroke-width="1.3" fill="none" stroke-linecap="round" stroke-linejoin="round"><line x1="0" y1="-10" x2="0" y2="8"/><line x1="-10" y1="-10" x2="10" y2="-10"/><circle cx="-10" cy="-4" r="3" fill="#142639"/><circle cx="10" cy="-4" r="3" fill="#142639"/><line x1="-6" y1="8" x2="6" y2="8"/></g>
<text x="492" y="334" text-anchor="middle" font-family="Arial, sans-serif" font-size="14" font-weight="700" fill="#93C0F2">Curator</text>
<text x="492" y="351" text-anchor="middle" font-family="Arial, sans-serif" font-size="11" fill="#93C0F2">holds the scales</text>
<text x="492" y="368" text-anchor="middle" font-family="Arial, sans-serif" font-size="9.5" font-weight="700" fill="#93C0F2">plugin · at the desk</text>
<line x1="559" y1="328" x2="567" y2="328" stroke="#8F8E86" stroke-width="1.3"/><path d="M560.4 332.5 L567 328 L560.4 323.5" fill="none" stroke="#8F8E86" stroke-width="1.3" stroke-linecap="round" stroke-linejoin="round"/>
<rect x="570" y="276" width="118" height="104" rx="12" fill="#2B2B28" stroke="#5A5954" stroke-width="1"/>
<g transform="translate(629,302)" stroke="#9A998F" stroke-width="1.3" fill="none" stroke-linecap="round" stroke-linejoin="round"><circle cx="0" cy="0" r="10"/><polygon points="0,-6 3,0 0,6 -3,0" fill="#9A998F" stroke="none"/></g>
<text x="629" y="334" text-anchor="middle" font-family="Arial, sans-serif" font-size="14" font-weight="700" fill="#9A998F">Docent</text>
<text x="629" y="351" text-anchor="middle" font-family="Arial, sans-serif" font-size="11" fill="#9A998F">guides the visitors</text>
<text x="629" y="368" text-anchor="middle" font-family="Arial, sans-serif" font-size="9.5" fill="#9A998F">agent skill · terminal</text>
<path d="M629 380 v20 H213 v-6" fill="none" stroke="#8F8E86" stroke-width="1.3" stroke-dasharray="3 3"/>
<path d="M492 380 v20" fill="none" stroke="#8F8E86" stroke-width="1.3" stroke-dasharray="3 3"/>
<path d="M207 388 L213 380 L219 388" fill="none" stroke="#8F8E86" stroke-width="1.3" stroke-linecap="round" stroke-linejoin="round"/>
<text x="421" y="414" text-anchor="middle" font-family="Arial, sans-serif" font-size="10.5" font-weight="700" fill="#ABA9A0">sent back by the curator, or missed by a reader - the librarian's next task</text>
<circle cx="40" cy="468" r="5" fill="#30302C" stroke="#ABA9A0" stroke-width="1"/>
<text x="51" y="472" font-family="Arial, sans-serif" font-size="12" fill="#ABA9A0">raw / unprocessed</text>
<circle cx="173" cy="468" r="5" fill="#23301B" stroke="#6FA33F" stroke-width="1"/>
<text x="184" y="472" font-family="Arial, sans-serif" font-size="12" fill="#A9D27C">an agent derives it</text>
<circle cx="319" cy="468" r="5" fill="#33290F" stroke="#C99A3E" stroke-width="1"/>
<text x="330" y="472" font-family="Arial, sans-serif" font-size="12" fill="#E4BD6E">deterministic tools check it</text>
<circle cx="523" cy="468" r="5" fill="#142639" stroke="#5A9BE0" stroke-width="1"/>
<text x="534" y="472" font-family="Arial, sans-serif" font-size="12" fill="#93C0F2">a named person vouches for it</text>
</svg>
